<svg width="42" height="48" viewBox="0 0 42 48" fill="none" xmlns="http://www.w3.org/2000/svg">
<path d="M29.3092 25.1493L37.5264 39.485C37.9925 40.2917 38.7112 40.629 39.4748 40.629C40.6174 40.629 41.8049 39.7801 41.8049 38.3381L41.847 9.66949C41.847 8.22749 40.7044 7.33643 39.559 7.33643C38.7954 7.33643 38.0346 7.71871 37.5686 8.52545L29.3092 22.819C29.0986 23.1591 29.0116 23.5808 29.0116 23.963C29.0116 24.3875 29.0958 24.7698 29.3092 25.1493Z" fill="#2FC18C"/>
<path d="M20.7972 30.0264L29.0566 44.3199C29.2699 44.7022 29.3962 45.1266 29.3962 45.5061C29.3962 46.7373 28.2957 47.797 27.0661 47.797C26.6843 47.797 26.3025 47.7127 25.9235 47.4991L1.14536 33.1212C0.339636 32.6546 0.00275421 31.89 0.00275421 31.1704C0.00275421 29.9842 0.892697 28.7952 2.33289 28.7952L18.8095 28.8795C19.6574 28.8795 20.4182 29.3039 20.8 30.0235" fill="#2FC18C"/>
<path d="M18.7647 18.9147H2.28803C0.847833 18.9147 0 17.7707 0 16.6238C0 15.8592 0.339698 15.0975 1.14261 14.6309L25.9629 0.340122C26.3447 0.129303 26.7686 0 27.1504 0C28.38 0 29.4384 1.05972 29.4384 2.33307C29.4384 2.71535 29.3121 3.09764 29.0987 3.47711L20.7551 17.7707C20.3312 18.4931 19.6125 18.9147 18.7647 18.9147Z" fill="#2FC18C"/>
</svg>
